<svg width="30" height="31" viewBox="0 0 30 31" fill="none" xmlns="http://www.w3.org/2000/svg">
<path d="M27.8571 11.9286H18.2143V2.28571C18.2143 1.10245 17.2547 0.142853 16.0714 0.142853H13.9286C12.7453 0.142853 11.7857 1.10245 11.7857 2.28571V11.9286H2.14286C0.959598 11.9286 0 12.8882 0 14.0714V16.2143C0 17.3975 0.959598 18.3571 2.14286 18.3571H11.7857V28C11.7857 29.1833 12.7453 30.1429 13.9286 30.1429H16.0714C17.2547 30.1429 18.2143 29.1833 18.2143 28V18.3571H27.8571C29.0404 18.3571 30 17.3975 30 16.2143V14.0714C30 12.8882 29.0404 11.9286 27.8571 11.9286Z" fill="#6F9E98"/>
</svg>
